<svg data-v-d7391482="" viewBox="0 0 73 73" fill="none" xmlns="http://www.w3.org/2000/svg" class="icon"><path data-v-d7391482="" fill-rule="evenodd" clip-rule="evenodd" d="M9.76 43.63c1.06 4.71 3.18 8.58 5.87 10.84a2 2 0 01.33 2.7L11.76 63h30.41c8.15-1.44 13.76-5.44 17.2-10.55 3.49-5.19 4.82-11.64 4.11-17.98C62.07 21.77 52.62 10 36.84 10c-8.11 0-14.1 2.23-18.38 5.6-4.29 3.37-7 8-8.38 13a31.43 31.43 0 00-.32 15.03zm6.23-31.18C21.07 8.45 27.96 6 36.84 6c18.23 0 29.03 13.73 30.62 28.03.8 7.16-.7 14.58-4.77 20.65-4.1 6.1-10.75 10.7-20 12.3a2 2 0 01-.35.02H7.84a2 2 0 01-1.62-3.17l5.48-7.58c-2.83-2.98-4.8-7.17-5.85-11.74-1.2-5.3-1.18-11.3.38-16.98a28.53 28.53 0 019.76-15.08z" fill="#fff"></path><circle data-v-d7391482="" cx="23.84" cy="36.5" r="4.5" fill="#fff"></circle><circle data-v-d7391482="" cx="36.84" cy="36.5" r="4.5" fill="#fff"></circle><circle data-v-d7391482="" cx="49.84" cy="36.5" r="4.5" fill="#fff"></circle></svg>