<svg data-v-d7391482="" viewBox="0 0 73 73" fill="none" xmlns="http://www.w3.org/2000/svg" class="icon"><path data-v-d7391482="" fill-rule="evenodd" clip-rule="evenodd" d="M34.74 3.78c3.96-1.3 7.63-.7 9.8-.17a2 2 0 011.51 1.94c0 6.76 3.5 10.74 6.23 12.58l.84-3.1a2 2 0 013.12-1.09c9.34 6.87 12.63 20.94 9.7 33.02-1.5 6.12-4.6 11.9-9.5 16.16-4.93 4.28-11.56 6.93-19.89 6.93-7.6 0-13.57-1.9-18.15-5.08a27.14 27.14 0 01-9.57-12.22c-3.83-9.3-3.3-20.17-1.18-26.8a2 2 0 012.8-1.18l2.07 1.03a23 23 0 017.77-15.3 2 2 0 012.58.05l2.07 1.81c2.8-4.88 6.3-7.43 9.8-8.58zM36 7.58c-2.84.93-6.07 3.25-8.62 8.8a2 2 0 01-3.13.68l-2.64-2.3c-2.43 2.59-5.66 7.75-5.06 14.1a2 2 0 01-2.88 1.98l-2.81-1.4c-1.33 5.94-1.33 14.47 1.68 21.8 1.7 4.11 4.32 7.79 8.15 10.44 3.82 2.65 8.97 4.37 15.87 4.37 7.43 0 13.11-2.34 17.26-5.95 4.18-3.63 6.91-8.63 8.24-14.08 2.4-9.87.09-20.66-5.9-26.86l-.67 2.42a2 2 0 01-2.62 1.35c-3.58-1.32-10.07-6.2-10.75-15.74-1.72-.27-3.89-.34-6.12.39z" fill="#fff"></path><path data-v-d7391482="" d="M49.66 47.2c.58 0 1.03-.3 1.4-.87.52-.8.87-2.6 1.03-5.41l-2.3-1.15a26.5 26.5 0 01-.22 3.1c-.16.86-.32 1.31-.48 1.31-.2 0-.39-.32-.58-.9-.51-1.3-.74-3.67-.74-7.13v-6.43h-6.52v-3.94h-2.98v3.94h-3.4v2.97h3.4a29.72 29.72 0 01-.48 4.32 27.3 27.3 0 00-2.05-1.28l-1.63 2.37a26.1 26.1 0 012.82 1.83 12.99 12.99 0 01-4.23 5.6l2.24 1.98a15.08 15.08 0 004.42-5.63 35.4 35.4 0 013.26 3.04l1.73-2.6a35.9 35.9 0 00-3.94-3.42c.48-1.85.77-3.9.84-6.2h3.55v3.45c0 4.86.67 8.06 2.01 9.63.77.9 1.7 1.38 2.85 1.41zM22.94 29.6v2.93h4.29v4.9c-1.66.35-3.4.64-5.12.86l.7 2.85c1.5-.25 2.98-.57 4.42-.9v3.11c0 .77-.32 1.18-.96 1.18-.86 0-1.76-.1-2.69-.22l.7 2.91h3.05c1.95 0 2.94-1.05 2.94-3.13V39.5c1.15-.29 2.27-.6 3.42-.93v-2.9c-1.12.37-2.27.7-3.42 1.01v-4.16h3.65V29.6h-3.65v-3.8h-3.04v3.8h-4.29zm3.3 18.4a23.05 23.05 0 01-3.9 5.75l2.49 1.82c1.5-1.79 2.82-3.9 3.97-6.33l-2.56-1.25zm7.68.89l-2.85.57c.6 1.73 1.12 3.71 1.54 6.02l3.04-.7a61.54 61.54 0 00-1.73-5.9zm6.62-.45l-2.85.6c.9 1.83 1.67 3.94 2.28 6.37l3-.7c-.7-2.24-1.5-4.35-2.43-6.27zm6.15-.96l-2.47 1.57a47.1 47.1 0 014.32 6.43l2.53-1.8a50.08 50.08 0 00-4.38-6.2z" fill="#fff"></path></svg>